<svg width="1536" height="1024" viewBox="0 0 1536 1024" fill="none" xmlns="http://www.w3.org/2000/svg">
<path d="M1087.87 457.62C1087.51 454.307 1088.12 451.533 1089.7 449.3C1090.77 447.787 1093.09 446.1 1096.66 444.24C1104.34 440.227 1111.57 435.547 1118.36 430.2C1118.41 430.16 1118.44 430.106 1118.46 430.046C1118.47 429.986 1118.47 429.922 1118.45 429.864C1118.43 429.806 1118.39 429.756 1118.33 429.721C1118.28 429.686 1118.22 429.668 1118.16 429.67L1054.97 432.45C1054.89 432.454 1054.82 432.484 1054.76 432.535C1054.71 432.586 1054.67 432.655 1054.66 432.73C1053.01 443.58 1046.6 451.31 1036.08 455.05C1016.93 461.84 994.719 452.45 993.209 430.31C993.204 430.238 993.174 430.171 993.125 430.118C993.076 430.066 993.01 430.031 992.939 430.02C961.246 425.7 930.109 418.56 899.529 408.6C899.465 408.578 899.395 408.579 899.33 408.601C899.265 408.623 899.21 408.666 899.172 408.723C899.135 408.78 899.117 408.848 899.122 408.916C899.127 408.984 899.154 409.049 899.199 409.1C913.719 426.56 932.399 440.5 953.479 448.88C969.879 455.4 987.369 459.33 1006.01 460.38C1022.24 461.3 1037.47 460.333 1051.68 457.48C1059.84 455.83 1065.73 455.39 1069.72 462.78C1069.87 463.06 1070.06 463.153 1070.27 463.06" stroke="#808080" stroke-opacity="0.996" stroke-width="2"/>
<path d="M581.62 442.441C581.587 442.475 581.567 442.519 581.563 442.566C581.56 442.613 581.573 442.659 581.6 442.698C581.628 442.736 581.668 442.763 581.713 442.775C581.759 442.786 581.807 442.781 581.85 442.761C597.81 434.571 613.64 422.811 624.34 408.471C624.379 408.421 624.4 408.359 624.401 408.296C624.402 408.232 624.382 408.17 624.345 408.118C624.307 408.066 624.253 408.026 624.191 408.005C624.129 407.984 624.062 407.983 624 408.001C612.933 411.628 601.573 414.761 589.92 417.401C589.826 417.423 589.744 417.478 589.691 417.556C589.637 417.634 589.615 417.729 589.63 417.821C591.083 427.521 588.413 435.728 581.62 442.441Z" stroke="#7E7E7F" stroke-opacity="0.996" stroke-width="2"/>
<path d="M561.25 450.552C558.75 450.162 556.28 450.592 553.63 450.252C541.93 448.765 533.987 442.645 529.8 431.892C529.19 430.302 528.83 427.822 528.29 426.012C528.241 425.849 528.14 425.708 528.004 425.61C527.869 425.512 527.705 425.463 527.54 425.472C507.913 426.558 492.4 427.182 481 427.342C443.987 427.862 422.567 428.165 416.74 428.252C416.695 428.254 416.652 428.269 416.617 428.296C416.581 428.323 416.555 428.36 416.541 428.402C416.526 428.444 416.526 428.49 416.538 428.532C416.55 428.575 416.575 428.613 416.61 428.642C456.67 460.482 513.69 466.112 561.29 451.072C561.346 451.052 561.394 451.014 561.426 450.964C561.459 450.915 561.474 450.855 561.469 450.796C561.465 450.737 561.441 450.681 561.401 450.637C561.361 450.592 561.308 450.563 561.25 450.552Z" stroke="#808080" stroke-opacity="0.996" stroke-width="2"/>
<path d="M663.39 391.94L653.86 396.56C653.204 396.878 652.665 397.4 652.32 398.05C649.57 403.28 647.29 409.31 643.6 414.51C639.19 420.73 636.93 424.01 633.28 428.09C630.47 431.23 627.14 433.79 624.67 436.23C621.597 439.256 619.18 441.45 617.42 442.81C607.334 450.55 597.05 456.803 586.57 461.57C555.137 475.863 522.27 481.09 487.97 477.25C478.364 476.176 468.467 474.186 458.28 471.28C451.96 469.47 446.5 466.93 440.07 464.54C438.51 463.96 436.134 462.906 432.94 461.38C426.127 458.113 419.07 453.976 411.77 448.97C403.07 443 397.45 437.11 390.2 429.41C389.583 428.76 388.744 428.368 387.85 428.31C379.45 427.74 373.4 421.83 373.74 413.26C374.04 405.91 380.85 401.3 387.77 401.23C426.01 400.85 459.73 400.48 493.75 399.44C508.984 398.973 523.53 398.036 537.39 396.63C542.737 396.09 554.007 394.43 571.2 391.65C588.834 388.796 606.664 384.143 624.69 377.69C637.124 373.243 648.63 367.346 659.21 360C664.224 356.526 667.484 352.123 668.99 346.79C669.544 344.823 669.74 340.383 669.58 333.47C669.427 327.11 668.58 319.773 667.04 311.46C664.7 298.846 660.767 286.103 655.24 273.23C638.367 233.936 610.414 205.47 571.38 187.83C568.434 186.496 562.824 184.543 554.55 181.97C535.09 175.903 514.484 174.223 492.73 176.93C479.237 178.61 466.38 182.12 454.16 187.46C434.18 196.193 418.157 209.31 406.09 226.81C400.404 235.07 395.654 244 391.84 253.6C391.047 255.6 389.33 257.62 386.69 259.66C376.61 267.45 362.72 259.48 364.41 247.1C365.284 240.673 367.664 233.396 371.55 225.27C381.164 205.19 394.94 188.69 412.88 175.77C427.71 165.09 443.84 156.96 461.7 152.19C464.18 151.53 468.847 150.493 475.7 149.08C481.047 147.973 485.764 147.273 489.85 146.98C499.437 146.273 507.934 146.146 515.34 146.6C536.88 147.9 557.72 151.47 578.55 158.98C583.19 160.646 589.014 163.226 596.02 166.72C602.207 169.806 607.704 172.966 612.51 176.2C633.864 190.546 651.577 208.71 665.65 230.69C668.53 235.196 671.164 239.793 673.55 244.48C676.78 250.82 680.36 256.73 683.03 263.41C692.83 287.87 698.3 313.42 698 339.75C697.794 357.563 696.09 374.48 692.89 390.5C688.024 414.853 684.837 431.286 683.33 439.8C682.257 445.846 681.627 453.34 681.44 462.28C681.194 474.233 683.907 486.116 689.58 497.93C691.46 501.836 694.824 507.22 699.67 514.08C707.12 524.64 714.65 535.46 719.62 548.08C722.547 555.52 724.117 564.91 724.33 576.25C724.71 596.8 724.22 617.55 726.16 637.56C727.16 647.88 729.49 657.65 733.15 666.87C734.58 670.47 738.45 676.33 741.6 678.86C747.587 683.693 754.427 685.673 762.12 684.8C771.567 683.726 780.164 679.846 787.91 673.16C792.59 669.12 796.227 665.51 798.82 662.33C811.92 646.25 821.03 626.68 828.97 606.76C838.44 582.99 845.52 562.16 855.24 535.56C859.014 525.233 862.77 514.226 866.51 502.54C867.757 498.64 869.31 495.2 871.17 492.22C875.76 484.88 886.47 483.72 893.29 489.25C895.29 490.87 897.27 493.32 899.63 495.21C907.177 501.25 911.027 504.336 911.18 504.47C916.71 509.11 921.39 511.22 927.28 514.95C932.55 518.28 938.06 520.29 943.7 522.99C946.627 524.396 949.91 525.596 953.55 526.59C965.15 529.75 975.32 532.25 986.75 532.21C996.37 532.176 1005.47 531.326 1014.05 529.66C1017.94 528.906 1020.74 528.713 1022.46 529.08C1029.05 530.5 1033.82 535.36 1033.35 542.18C1032.88 549.14 1028.38 552.97 1022.2 554.7C1013.37 557.173 1003.63 558.486 992.99 558.64C975.697 558.893 959.227 556.453 943.58 551.32C924.33 545.01 906.99 534.71 890.57 523.47C890.546 523.455 890.519 523.445 890.49 523.442C890.462 523.439 890.433 523.443 890.406 523.452C890.379 523.462 890.355 523.477 890.335 523.498C890.315 523.518 890.3 523.543 890.29 523.57C882.27 546.223 873.597 569.713 864.27 594.04C863.23 596.73 864.61 598.32 867.09 599.49C867.85 599.843 869.744 600.68 872.77 602C875.037 602.98 882.304 606.786 894.57 613.42C901.217 617.013 908.264 621.213 915.71 626.02C925.17 632.12 933.49 637.49 940.82 643.52C946.16 647.92 947.82 655.41 942.85 660.74C939.857 663.96 936.17 665.166 931.79 664.36C929.777 663.986 926.737 662.296 922.67 659.29C902.14 644.11 879.03 630.23 855.12 619.89C855.057 619.862 854.989 619.846 854.92 619.845C854.852 619.843 854.783 619.855 854.719 619.88C854.655 619.905 854.596 619.943 854.546 619.991C854.497 620.039 854.457 620.096 854.43 620.16C847.43 636.34 840.534 649.79 833.74 660.51C817.14 686.71 790.38 712.18 757.48 711.32C720.19 710.34 702.37 679.29 698.63 646.06C697.244 633.713 696.614 620.506 696.74 606.44C696.741 606.295 696.708 606.152 696.644 606.022C696.581 605.892 696.488 605.778 696.373 605.691C696.258 605.604 696.125 605.544 695.984 605.518C695.843 605.492 695.698 605.499 695.56 605.54C677.387 610.8 660.917 619.486 646.15 631.6C644.017 633.353 640.98 633.99 637.04 633.51C627.54 632.35 624.4 620.6 630.53 614.28C633.67 611.04 637.497 607.786 642.01 604.52C656.924 593.74 673.42 585.89 691.5 580.97C694.067 580.27 695.337 578.276 695.31 574.99C695.19 562.03 689.2 549.11 682.15 538.6C676.43 530.066 671.997 523.26 668.85 518.18C662.344 507.693 657.884 496.813 655.47 485.54C654.437 480.706 653.86 474.276 653.74 466.25C653.51 450.32 656.2 432.24 659.94 416.03C660.68 412.843 661.277 409.636 661.73 406.41C662.29 402.36 663.91 397.07 664.1 392.4C664.104 392.314 664.086 392.229 664.047 392.153C664.007 392.077 663.949 392.013 663.877 391.966C663.805 391.92 663.723 391.893 663.637 391.888C663.552 391.883 663.467 391.901 663.39 391.94ZM581.62 442.44C581.587 442.473 581.567 442.518 581.564 442.565C581.56 442.611 581.573 442.658 581.601 442.696C581.628 442.735 581.668 442.762 581.714 442.774C581.76 442.785 581.808 442.78 581.85 442.76C597.81 434.57 613.64 422.81 624.34 408.47C624.38 408.419 624.401 408.358 624.402 408.295C624.403 408.231 624.383 408.169 624.345 408.117C624.308 408.064 624.254 408.025 624.192 408.004C624.13 407.983 624.063 407.982 624 408C612.934 411.626 601.574 414.76 589.92 417.4C589.827 417.422 589.745 417.477 589.691 417.555C589.637 417.633 589.616 417.727 589.63 417.82C591.084 427.52 588.414 435.726 581.62 442.44ZM561.25 450.55C558.75 450.16 556.28 450.59 553.63 450.25C541.93 448.763 533.987 442.643 529.8 431.89C529.19 430.3 528.83 427.82 528.29 426.01C528.241 425.847 528.141 425.706 528.005 425.608C527.869 425.51 527.705 425.461 527.54 425.47C507.914 426.556 492.4 427.18 481 427.34C443.987 427.86 422.567 428.163 416.74 428.25C416.696 428.252 416.653 428.267 416.617 428.294C416.582 428.321 416.555 428.358 416.541 428.4C416.527 428.442 416.526 428.488 416.538 428.531C416.551 428.573 416.576 428.611 416.61 428.64C456.67 460.48 513.69 466.11 561.29 451.07C561.346 451.05 561.394 451.012 561.427 450.962C561.459 450.913 561.474 450.854 561.47 450.794C561.465 450.735 561.441 450.679 561.402 450.635C561.362 450.591 561.309 450.561 561.25 450.55Z" fill="black" fill-opacity="0.992"/>
<path d="M864.8 271.221C863.46 270.041 862.17 267.331 861.82 265.421C860.66 259.074 862.594 253.807 867.62 249.621C875.387 243.141 882.427 237.947 888.74 234.041C914.534 218.061 941.58 207.538 969.88 202.471C993.887 198.178 1018.51 197.181 1043.76 199.481C1049.66 200.021 1057.02 201.251 1063.5 201.971C1065.8 202.224 1068.41 202.707 1071.32 203.421C1081.96 206.021 1088.3 207.161 1096.33 210.091C1106.82 213.911 1115.93 218.084 1123.68 222.611C1136.24 229.951 1148.5 240.151 1157.33 252.151C1160.57 256.571 1163.95 261.141 1164.15 266.171C1164.41 272.991 1159.86 279.221 1153.28 280.401C1147.46 281.461 1144.19 279.651 1140.05 275.301C1134.81 269.794 1131.74 266.587 1130.83 265.681C1117.11 251.961 1099.86 242.321 1081.68 236.351C1062.31 230.004 1041.99 226.758 1020.71 226.611C994.004 226.431 968.357 230.891 943.77 239.991C923.4 247.521 903.67 258.941 884.95 272.421C878.057 277.394 871.34 276.994 864.8 271.221Z" fill="black" fill-opacity="0.992"/>
<path d="M1087.87 457.619C1087.51 454.306 1088.12 451.533 1089.7 449.299C1090.77 447.786 1093.09 446.099 1096.66 444.239C1104.34 440.226 1111.57 435.546 1118.36 430.199C1118.41 430.16 1118.44 430.106 1118.46 430.046C1118.47 429.985 1118.47 429.922 1118.45 429.863C1118.43 429.805 1118.39 429.755 1118.34 429.721C1118.28 429.686 1118.22 429.668 1118.16 429.669L1054.97 432.449C1054.89 432.453 1054.82 432.483 1054.77 432.534C1054.71 432.585 1054.67 432.654 1054.66 432.729C1053.01 443.579 1046.6 451.309 1036.08 455.049C1016.93 461.839 994.72 452.449 993.21 430.309C993.205 430.238 993.175 430.17 993.126 430.118C993.077 430.065 993.011 430.03 992.94 430.019C961.247 425.699 930.11 418.559 899.53 408.599C899.466 408.578 899.396 408.578 899.331 408.6C899.266 408.623 899.211 408.666 899.173 408.723C899.136 408.78 899.118 408.848 899.123 408.916C899.128 408.984 899.155 409.048 899.2 409.099C913.72 426.559 932.4 440.499 953.48 448.879C969.88 455.399 987.37 459.329 1006.01 460.379C1022.24 461.299 1037.47 460.333 1051.68 457.479C1059.84 455.829 1065.73 455.389 1069.72 462.779C1069.87 463.059 1070.06 463.153 1070.27 463.059C1070.02 463.519 1069.9 463.833 1069.91 463.999C1070.34 470.159 1067.54 473.933 1061.53 475.319C1052.54 477.393 1044.45 478.723 1037.26 479.309C1021.49 480.596 1005.94 480.286 990.6 478.379C971.994 476.059 954.147 470.823 937.06 462.669C915.547 452.409 897.45 438.203 882.77 420.049C877.66 413.719 873.05 406.369 869.61 398.759C869.418 398.343 869.073 398.02 868.65 397.859C865.397 396.639 861.187 395.096 856.02 393.229C851.04 391.429 847.08 388.279 845.51 383.259C843.01 375.279 848.86 367.599 856.73 366.459C869.144 364.659 880.574 366.193 891.02 371.059C906.894 378.446 915.404 382.399 916.55 382.919C930.87 389.359 945.88 394.426 961.58 398.119C979.66 402.369 1000.12 405.809 1017.5 406.759C1025.72 407.213 1037.72 407.186 1053.5 406.679C1072.99 406.053 1093.41 404.913 1114.75 403.259C1133.42 401.813 1147.01 400.949 1155.5 400.669C1159.07 400.539 1163.82 402.909 1166.12 405.919C1170.96 412.239 1168.83 421.709 1161.67 425.559C1158.07 427.499 1152.7 427.129 1147.25 427.469C1147.04 427.482 1146.84 427.539 1146.66 427.635C1146.47 427.732 1146.31 427.866 1146.18 428.029C1143.17 431.856 1139.5 436.076 1135.18 440.689C1129.81 446.429 1124.08 449.829 1117.52 454.749C1115.6 456.189 1111.92 458.379 1106.47 461.319C1102.37 463.533 1098.99 464.519 1096.32 464.279C1092.65 463.939 1089.84 461.719 1087.87 457.619Z" fill="black" fill-opacity="0.992"/>
<path d="M581.62 442.441C588.413 435.728 591.083 427.521 589.63 417.821C589.615 417.729 589.637 417.634 589.691 417.556C589.744 417.478 589.826 417.423 589.92 417.401C601.573 414.761 612.933 411.628 624 408.001C624.062 407.983 624.129 407.984 624.191 408.005C624.253 408.026 624.307 408.066 624.345 408.118C624.382 408.17 624.402 408.232 624.401 408.296C624.4 408.359 624.379 408.421 624.34 408.471C613.64 422.811 597.81 434.571 581.85 442.761C581.807 442.781 581.759 442.786 581.713 442.775C581.668 442.763 581.628 442.736 581.6 442.698C581.573 442.659 581.56 442.613 581.563 442.566C581.567 442.519 581.587 442.475 581.62 442.441Z" fill="#FCFCFD"/>
<path d="M1087.87 457.62L1070.27 463.06C1070.06 463.153 1069.87 463.06 1069.72 462.78C1065.73 455.39 1059.84 455.83 1051.68 457.48C1037.47 460.333 1022.24 461.3 1006.01 460.38C987.369 459.33 969.879 455.4 953.479 448.88C932.399 440.5 913.719 426.56 899.199 409.1C899.154 409.049 899.127 408.984 899.122 408.916C899.117 408.848 899.135 408.78 899.172 408.723C899.21 408.666 899.265 408.623 899.33 408.601C899.395 408.579 899.465 408.578 899.529 408.6C930.109 418.56 961.246 425.7 992.939 430.02C993.01 430.031 993.076 430.066 993.125 430.118C993.174 430.171 993.204 430.238 993.209 430.31C994.719 452.45 1016.93 461.84 1036.08 455.05C1046.6 451.31 1053.01 443.58 1054.66 432.73C1054.67 432.655 1054.71 432.586 1054.76 432.535C1054.82 432.484 1054.89 432.454 1054.97 432.45L1118.16 429.67C1118.22 429.668 1118.28 429.686 1118.33 429.721C1118.39 429.756 1118.43 429.806 1118.45 429.864C1118.47 429.922 1118.47 429.986 1118.46 430.046C1118.44 430.106 1118.41 430.16 1118.36 430.2C1111.57 435.547 1104.34 440.227 1096.66 444.24C1093.09 446.1 1090.77 447.787 1089.7 449.3C1088.12 451.533 1087.51 454.307 1087.87 457.62Z" fill="white" fill-opacity="0.996"/>
<path d="M561.25 450.55C561.308 450.561 561.361 450.591 561.401 450.635C561.441 450.679 561.465 450.735 561.469 450.794C561.474 450.854 561.459 450.913 561.426 450.962C561.394 451.012 561.346 451.05 561.29 451.07C513.69 466.11 456.67 460.48 416.61 428.64C416.575 428.611 416.55 428.573 416.538 428.531C416.526 428.488 416.526 428.442 416.541 428.4C416.555 428.358 416.581 428.321 416.617 428.294C416.652 428.267 416.695 428.252 416.74 428.25C422.567 428.163 443.987 427.86 481 427.34C492.4 427.18 507.913 426.556 527.54 425.47C527.705 425.461 527.869 425.51 528.004 425.608C528.14 425.706 528.241 425.847 528.29 426.01C528.83 427.82 529.19 430.3 529.8 431.89C533.987 442.643 541.93 448.763 553.63 450.25C556.28 450.59 558.75 450.16 561.25 450.55Z" fill="white" fill-opacity="0.996"/>
<path d="M486.621 540.559C481.301 541.379 475.011 541.806 467.751 541.839C449.151 541.939 429.421 537.329 413.931 527.019C406.791 522.279 400.251 516.909 395.811 510.489C390.481 502.799 394.421 492.139 403.601 490.409C409.721 489.249 413.331 491.179 417.661 496.089C422.601 501.689 431.241 508.049 439.231 510.769C469.731 521.169 499.521 513.209 526.521 497.769C534.991 492.919 545.981 497.159 546.681 507.289C547.041 512.499 544.131 517.639 539.871 520.369C530.257 526.516 521.541 530.949 513.721 533.669C504.354 536.923 495.321 539.219 486.621 540.559Z" fill="black" fill-opacity="0.992"/>
<path d="M563.951 702.88C563.934 702.84 563.909 702.804 563.876 702.776C563.843 702.748 563.804 702.728 563.762 702.718C563.719 702.709 563.675 702.709 563.634 702.72C563.592 702.73 563.553 702.751 563.521 702.78C560.511 705.61 558.801 707.03 556.511 709.77C547.411 720.663 539.047 732.05 531.421 743.93C528.741 748.103 526.674 750.557 525.221 751.29C521.411 753.22 516.491 753.63 512.791 751.38C507.571 748.207 505.974 743.287 508.001 736.62C508.774 734.067 510.851 730.177 514.231 724.95C528.257 703.23 545.047 683.613 564.601 666.1C571.294 660.1 578.607 654.413 586.541 649.04C592.231 645.19 599.591 644.38 604.541 649.54C607.141 652.253 608.164 655.57 607.611 659.49C607.021 663.66 604.891 666.37 601.111 669.07C595.891 672.79 590.421 677.15 584.701 682.15C584.641 682.2 584.596 682.265 584.571 682.338C584.546 682.41 584.543 682.487 584.561 682.56C589.421 702.827 600.101 719.36 616.601 732.16C634.761 746.25 655.691 754.07 678.691 757.54C681.457 757.953 688.077 758.943 698.551 760.51C710.531 762.297 721.707 766.767 732.081 773.92C743.031 781.47 749.791 786.16 760.151 790.59C777.081 797.82 796.561 796.08 813.041 787.99C821.147 784.01 828.941 779.477 836.421 774.39C842.154 770.497 847.721 767.353 853.121 764.96C862.281 760.89 873.461 759.34 884.481 757.97C892.781 756.93 899.021 755.68 907.451 754.36C919.884 752.4 931.631 748.927 942.691 743.94C958.561 736.79 972.461 724.39 977.561 707.47C977.608 707.318 977.625 707.157 977.609 706.997C977.594 706.838 977.547 706.682 977.471 706.54C975.661 703.12 970.711 701.66 968.971 697.61C963.811 685.57 975.891 674.99 986.921 681.81C990.714 684.15 994.911 687.443 999.511 691.69C1012.23 703.437 1023.39 716.77 1032.99 731.69C1039.47 741.77 1044.69 752.077 1048.64 762.61C1049.19 764.077 1049.53 765.88 1049.65 768.02C1050.26 778.72 1038.31 784.49 1029.9 778.22C1028.27 777.007 1026.78 774.677 1025.41 771.23C1024.54 769.01 1023.01 765.747 1020.83 761.44C1014.44 748.827 1006.74 737.28 997.731 726.8C997.689 726.752 997.637 726.714 997.578 726.691C997.519 726.668 997.455 726.659 997.392 726.666C997.329 726.673 997.269 726.695 997.216 726.731C997.164 726.766 997.121 726.814 997.091 726.87C989.164 741.83 977.747 753.483 962.841 761.83C959.767 763.55 955.301 765.833 949.441 768.68C947.387 769.673 942.001 771.53 933.281 774.25C927.914 775.917 922.384 777.29 916.691 778.37C905.784 780.437 894.231 782.343 882.031 784.09C872.871 785.403 864.677 787.857 857.451 791.45C853.537 793.39 846.901 797.323 837.541 803.25C827.461 809.63 817.817 814.163 808.611 816.85C789.561 822.42 768.861 822.32 750.391 814.36C744.741 811.93 739.121 809.38 734.231 805.98C727.617 801.36 721.937 797.56 717.191 794.58C708.657 789.22 699.441 786.033 689.541 785.02C686.027 784.66 683.167 784.3 680.961 783.94C665.401 781.413 653.144 778.62 644.191 775.56C631.531 771.233 620.127 765.707 609.981 758.98C589.641 745.49 572.861 725.84 563.951 702.88Z" fill="black" fill-opacity="0.992"/>
<path d="M703.429 893.871C694.079 898.761 683.079 888.941 687.309 878.761C688.569 875.721 690.346 873.424 692.64 871.871C708.12 861.401 726.999 857.111 745.369 854.621C755.743 853.214 765.869 852.178 775.749 851.511C789.496 850.584 803.75 851.088 818.51 853.021C828.716 854.361 838.543 856.774 847.989 860.261C851.769 861.661 856.939 864.221 859.349 867.461C862.689 871.961 862.969 877.821 859.469 882.441C856.249 886.694 851.686 888.154 845.78 886.821C845.487 886.754 845.205 886.661 844.939 886.541C835.913 882.381 826.429 879.701 816.489 878.501C791.229 875.451 765.9 877.061 740.82 881.381C733.713 882.601 725.979 884.594 717.619 887.361C714.486 888.394 709.756 890.564 703.429 893.871Z" fill="black" fill-opacity="0.992"/>
</svg>
